# xmcd
#
# Track frame offsets: 
#        150
#        10474
#        27056
#        47978
#        68535
#        86084
#        101693
#        116713
#        130269
#        152834
#        169207
#        186283
#        206856
#
# Disc length: 2970 seconds
#
# Revision: 4
# Processed by: cddbd v1.5.2PL0 Copyright (c) Steve Scherf et al.
# Submitted via: ExactAudioCopy v0.99pb4
#
DISCID=b60b980d
DTITLE=Patricia Kaas - Kabaret
DYEAR=2008
DGENRE=Pop
TTITLE0=Addicte Aux Heroines
TTITLE1=La Chance Jamais Ne Dure
TTITLE2=Le Jour Se Leve 
TTITLE3=Une Derniere Fois 
TTITLE4=Melodie Oubliee (Kabaret) 
TTITLE5=Faites Entrer Les Clowns 
TTITLE6=Falling In Love Again 
TTITLE7=Pigalle (Interlude) 
TTITLE8=Je T'Aime Encore 
TTITLE9=Solo
TTITLE10=Et S'Il Fallait Le Faire 
TTITLE11=Mon Piano Rouge
TTITLE12=Mne Nravitsya 
EXTD=
EXTT0=
EXTT1=
EXTT2=
EXTT3=
EXTT4=
EXTT5=
EXTT6=
EXTT7=
EXTT8=
EXTT9=
EXTT10=
EXTT11=
EXTT12=
PLAYORDER=
